<mxfile host="app.diagrams.net" modified="2023-03-01T12:41:09.429Z" agent="5.0 (Windows NT 10.0; Win64; x64) AppleWebKit/537.36 (KHTML, like Gecko) Chrome/110.0.0.0 Safari/537.36 Edg/110.0.1587.56" etag="f7nrniF639Ie3RUpBacD" version="20.8.5" type="github">
  <diagram name="第 1 页" id="O65LZK2slVyXpo6iQTGG">
    <mxGraphModel dx="1050" dy="621" grid="1" gridSize="10" guides="1" tooltips="1" connect="1" arrows="1" fold="1" page="1" pageScale="1" pageWidth="827" pageHeight="1169" math="0" shadow="0">
      <root>
        <mxCell id="0" />
        <mxCell id="1" parent="0" />
        <mxCell id="D_fiYFlsZKRknS_wLcSp-1" value="請購單" style="rounded=0;whiteSpace=wrap;html=1;fontFamily=NOTO SANS CJK;fontSource=https%3A%2F%2Ffonts.googleapis.com%2Fcss%3Ffamily%3DNOTO%2BSANS%2BCJK;fontStyle=0;fontSize=12;" parent="1" vertex="1">
          <mxGeometry x="60" y="40" width="120" height="60" as="geometry" />
        </mxCell>
        <mxCell id="D_fiYFlsZKRknS_wLcSp-2" value="" style="endArrow=classic;html=1;rounded=0;exitX=1;exitY=0.5;exitDx=0;exitDy=0;entryX=0;entryY=0.5;entryDx=0;entryDy=0;fontFamily=NOTO SANS CJK;fontSource=https%3A%2F%2Ffonts.googleapis.com%2Fcss%3Ffamily%3DNOTO%2BSANS%2BCJK;fontStyle=0;fontSize=12;" parent="1" source="D_fiYFlsZKRknS_wLcSp-1" target="D_fiYFlsZKRknS_wLcSp-3" edge="1">
          <mxGeometry width="50" height="50" relative="1" as="geometry">
            <mxPoint x="560" y="330" as="sourcePoint" />
            <mxPoint x="250" y="130" as="targetPoint" />
          </mxGeometry>
        </mxCell>
        <mxCell id="D_fiYFlsZKRknS_wLcSp-6" value="" style="edgeStyle=orthogonalEdgeStyle;rounded=0;orthogonalLoop=1;jettySize=auto;html=1;fontFamily=NOTO SANS CJK;fontSource=https%3A%2F%2Ffonts.googleapis.com%2Fcss%3Ffamily%3DNOTO%2BSANS%2BCJK;fontStyle=0;fontSize=12;" parent="1" source="D_fiYFlsZKRknS_wLcSp-3" target="D_fiYFlsZKRknS_wLcSp-5" edge="1">
          <mxGeometry relative="1" as="geometry" />
        </mxCell>
        <mxCell id="D_fiYFlsZKRknS_wLcSp-3" value="採購單" style="rounded=0;whiteSpace=wrap;html=1;fontFamily=NOTO SANS CJK;fontSource=https%3A%2F%2Ffonts.googleapis.com%2Fcss%3Ffamily%3DNOTO%2BSANS%2BCJK;fontStyle=0;fontSize=12;" parent="1" vertex="1">
          <mxGeometry x="230" y="40" width="120" height="60" as="geometry" />
        </mxCell>
        <mxCell id="D_fiYFlsZKRknS_wLcSp-16" value="否" style="edgeStyle=orthogonalEdgeStyle;rounded=0;orthogonalLoop=1;jettySize=auto;html=1;exitX=0.5;exitY=1;exitDx=0;exitDy=0;exitPerimeter=0;fontFamily=NOTO SANS CJK;fontSource=https%3A%2F%2Ffonts.googleapis.com%2Fcss%3Ffamily%3DNOTO%2BSANS%2BCJK;fontStyle=0;fontSize=12;" parent="1" source="D_fiYFlsZKRknS_wLcSp-5" target="D_fiYFlsZKRknS_wLcSp-13" edge="1">
          <mxGeometry x="-0.601" y="20" relative="1" as="geometry">
            <Array as="points" />
            <mxPoint as="offset" />
          </mxGeometry>
        </mxCell>
        <mxCell id="D_fiYFlsZKRknS_wLcSp-5" value="保稅" style="rhombus;whiteSpace=wrap;html=1;fontFamily=NOTO SANS CJK;fontSource=https%3A%2F%2Ffonts.googleapis.com%2Fcss%3Ffamily%3DNOTO%2BSANS%2BCJK;fontStyle=0;fontSize=12;" parent="1" vertex="1">
          <mxGeometry x="230" y="190" width="120" height="80" as="geometry" />
        </mxCell>
        <mxCell id="D_fiYFlsZKRknS_wLcSp-7" value="報關單綁定&lt;br style=&quot;font-size: 12px;&quot;&gt;D7、D8" style="whiteSpace=wrap;html=1;fontFamily=NOTO SANS CJK;fontSource=https%3A%2F%2Ffonts.googleapis.com%2Fcss%3Ffamily%3DNOTO%2BSANS%2BCJK;fontStyle=0;fontSize=12;" parent="1" vertex="1">
          <mxGeometry x="60" y="200" width="120" height="60" as="geometry" />
        </mxCell>
        <mxCell id="D_fiYFlsZKRknS_wLcSp-12" value="是" style="endArrow=classic;html=1;rounded=0;exitX=0;exitY=0.5;exitDx=0;exitDy=0;fontFamily=NOTO SANS CJK;fontSource=https%3A%2F%2Ffonts.googleapis.com%2Fcss%3Ffamily%3DNOTO%2BSANS%2BCJK;fontStyle=0;fontSize=12;" parent="1" source="D_fiYFlsZKRknS_wLcSp-5" edge="1">
          <mxGeometry width="50" height="50" relative="1" as="geometry">
            <mxPoint x="220" y="230" as="sourcePoint" />
            <mxPoint x="180" y="230" as="targetPoint" />
            <Array as="points" />
          </mxGeometry>
        </mxCell>
        <mxCell id="D_fiYFlsZKRknS_wLcSp-22" value="" style="edgeStyle=orthogonalEdgeStyle;rounded=0;orthogonalLoop=1;jettySize=auto;html=1;fontFamily=NOTO SANS CJK;fontSource=https%3A%2F%2Ffonts.googleapis.com%2Fcss%3Ffamily%3DNOTO%2BSANS%2BCJK;fontStyle=0;fontSize=12;" parent="1" source="D_fiYFlsZKRknS_wLcSp-13" target="D_fiYFlsZKRknS_wLcSp-21" edge="1">
          <mxGeometry relative="1" as="geometry" />
        </mxCell>
        <mxCell id="D_fiYFlsZKRknS_wLcSp-13" value="簽收作業" style="rounded=0;whiteSpace=wrap;html=1;fontFamily=NOTO SANS CJK;fontSource=https%3A%2F%2Ffonts.googleapis.com%2Fcss%3Ffamily%3DNOTO%2BSANS%2BCJK;fontStyle=0;fontSize=12;" parent="1" vertex="1">
          <mxGeometry x="230" y="300" width="120" height="60" as="geometry" />
        </mxCell>
        <mxCell id="D_fiYFlsZKRknS_wLcSp-19" value="" style="endArrow=classic;html=1;rounded=0;exitX=0.5;exitY=1;exitDx=0;exitDy=0;fontFamily=NOTO SANS CJK;fontSource=https%3A%2F%2Ffonts.googleapis.com%2Fcss%3Ffamily%3DNOTO%2BSANS%2BCJK;fontStyle=0;fontSize=12;" parent="1" source="D_fiYFlsZKRknS_wLcSp-7" edge="1">
          <mxGeometry width="50" height="50" relative="1" as="geometry">
            <mxPoint x="670" y="330" as="sourcePoint" />
            <mxPoint x="230" y="330" as="targetPoint" />
            <Array as="points">
              <mxPoint x="120" y="330" />
            </Array>
          </mxGeometry>
        </mxCell>
        <mxCell id="D_fiYFlsZKRknS_wLcSp-20" value="簽收總數等於報關單" style="edgeLabel;html=1;align=center;verticalAlign=middle;resizable=0;points=[];fontFamily=NOTO SANS CJK;fontSource=https%3A%2F%2Ffonts.googleapis.com%2Fcss%3Ffamily%3DNOTO%2BSANS%2BCJK;fontStyle=0;fontSize=12;" parent="D_fiYFlsZKRknS_wLcSp-19" vertex="1" connectable="0">
          <mxGeometry x="0.2243" relative="1" as="geometry">
            <mxPoint x="-30" y="10" as="offset" />
          </mxGeometry>
        </mxCell>
        <mxCell id="D_fiYFlsZKRknS_wLcSp-24" value="" style="edgeStyle=orthogonalEdgeStyle;rounded=0;orthogonalLoop=1;jettySize=auto;html=1;fontFamily=NOTO SANS CJK;fontSource=https%3A%2F%2Ffonts.googleapis.com%2Fcss%3Ffamily%3DNOTO%2BSANS%2BCJK;fontStyle=0;fontSize=12;" parent="1" source="D_fiYFlsZKRknS_wLcSp-21" target="D_fiYFlsZKRknS_wLcSp-23" edge="1">
          <mxGeometry relative="1" as="geometry" />
        </mxCell>
        <mxCell id="D_fiYFlsZKRknS_wLcSp-21" value="驗收作業" style="rounded=0;whiteSpace=wrap;html=1;fontFamily=NOTO SANS CJK;fontSource=https%3A%2F%2Ffonts.googleapis.com%2Fcss%3Ffamily%3DNOTO%2BSANS%2BCJK;fontStyle=0;fontSize=12;" parent="1" vertex="1">
          <mxGeometry x="230" y="410" width="120" height="60" as="geometry" />
        </mxCell>
        <mxCell id="D_fiYFlsZKRknS_wLcSp-23" value="SLAO/SLAG&lt;br style=&quot;font-size: 12px;&quot;&gt;庫存" style="whiteSpace=wrap;html=1;rounded=0;fontFamily=NOTO SANS CJK;fontSource=https%3A%2F%2Ffonts.googleapis.com%2Fcss%3Ffamily%3DNOTO%2BSANS%2BCJK;fontStyle=0;fontSize=12;" parent="1" vertex="1">
          <mxGeometry x="230" y="520" width="120" height="60" as="geometry" />
        </mxCell>
        <mxCell id="4nCogx4GS3Id0YFTxtVs-11" value="轉撥進貨" style="rounded=0;whiteSpace=wrap;html=1;fontFamily=NOTO SANS CJK;fontSource=https%3A%2F%2Ffonts.googleapis.com%2Fcss%3Ffamily%3DNOTO%2BSANS%2BCJK;fontStyle=0;fontSize=12;" parent="1" vertex="1">
          <mxGeometry x="390" y="40" width="120" height="60" as="geometry" />
        </mxCell>
        <mxCell id="KMi88Kw30Uca4kI8G9Iz-3" value="是" style="edgeStyle=orthogonalEdgeStyle;rounded=0;orthogonalLoop=1;jettySize=auto;html=1;fontFamily=NOTO SANS CJK;fontSource=https%3A%2F%2Ffonts.googleapis.com%2Fcss%3Ffamily%3DNOTO%2BSANS%2BCJK;fontStyle=0;fontSize=12;" edge="1" parent="1" source="4nCogx4GS3Id0YFTxtVs-14" target="KMi88Kw30Uca4kI8G9Iz-2">
          <mxGeometry relative="1" as="geometry" />
        </mxCell>
        <mxCell id="4nCogx4GS3Id0YFTxtVs-14" value="保稅轉撥單" style="rhombus;whiteSpace=wrap;html=1;fontFamily=NOTO SANS CJK;fontSource=https%3A%2F%2Ffonts.googleapis.com%2Fcss%3Ffamily%3DNOTO%2BSANS%2BCJK;fontStyle=0;fontSize=12;" parent="1" vertex="1">
          <mxGeometry x="390" y="190" width="120" height="80" as="geometry" />
        </mxCell>
        <mxCell id="4nCogx4GS3Id0YFTxtVs-16" value="" style="endArrow=classic;html=1;rounded=0;exitX=0.5;exitY=1;exitDx=0;exitDy=0;entryX=0.5;entryY=0;entryDx=0;entryDy=0;fontFamily=NOTO SANS CJK;fontSource=https%3A%2F%2Ffonts.googleapis.com%2Fcss%3Ffamily%3DNOTO%2BSANS%2BCJK;fontStyle=0;fontSize=12;" parent="1" source="4nCogx4GS3Id0YFTxtVs-11" target="4nCogx4GS3Id0YFTxtVs-14" edge="1">
          <mxGeometry width="50" height="50" relative="1" as="geometry">
            <mxPoint x="470" y="170" as="sourcePoint" />
            <mxPoint x="520" y="120" as="targetPoint" />
          </mxGeometry>
        </mxCell>
        <mxCell id="4nCogx4GS3Id0YFTxtVs-19" value="否" style="endArrow=classic;html=1;rounded=0;exitX=1;exitY=0.5;exitDx=0;exitDy=0;entryX=1;entryY=0.5;entryDx=0;entryDy=0;fontFamily=NOTO SANS CJK;fontSource=https%3A%2F%2Ffonts.googleapis.com%2Fcss%3Ffamily%3DNOTO%2BSANS%2BCJK;fontStyle=0;fontSize=12;" parent="1" source="4nCogx4GS3Id0YFTxtVs-14" edge="1" target="D_fiYFlsZKRknS_wLcSp-23">
          <mxGeometry width="50" height="50" relative="1" as="geometry">
            <mxPoint x="470" y="350" as="sourcePoint" />
            <mxPoint x="450" y="550" as="targetPoint" />
            <Array as="points">
              <mxPoint x="620" y="230" />
              <mxPoint x="620" y="550" />
            </Array>
          </mxGeometry>
        </mxCell>
        <mxCell id="KMi88Kw30Uca4kI8G9Iz-2" value="依照報關單&lt;br style=&quot;font-size: 12px;&quot;&gt;數量入庫" style="rounded=0;whiteSpace=wrap;html=1;fontFamily=NOTO SANS CJK;fontSource=https%3A%2F%2Ffonts.googleapis.com%2Fcss%3Ffamily%3DNOTO%2BSANS%2BCJK;fontStyle=0;fontSize=12;" vertex="1" parent="1">
          <mxGeometry x="390" y="390" width="120" height="60" as="geometry" />
        </mxCell>
        <mxCell id="KMi88Kw30Uca4kI8G9Iz-4" value="" style="endArrow=classic;html=1;rounded=0;exitX=0.5;exitY=1;exitDx=0;exitDy=0;entryX=1;entryY=0.5;entryDx=0;entryDy=0;fontFamily=NOTO SANS CJK;fontSource=https%3A%2F%2Ffonts.googleapis.com%2Fcss%3Ffamily%3DNOTO%2BSANS%2BCJK;fontStyle=0;fontSize=12;" edge="1" parent="1" source="KMi88Kw30Uca4kI8G9Iz-2" target="D_fiYFlsZKRknS_wLcSp-23">
          <mxGeometry width="50" height="50" relative="1" as="geometry">
            <mxPoint x="340" y="380" as="sourcePoint" />
            <mxPoint x="390" y="330" as="targetPoint" />
            <Array as="points">
              <mxPoint x="450" y="550" />
            </Array>
          </mxGeometry>
        </mxCell>
      </root>
    </mxGraphModel>
  </diagram>
</mxfile>
